<svg width="81" height="62" viewBox="0 0 81 62" fill="none" xmlns="http://www.w3.org/2000/svg">
<path d="M80 40.75C80 43 76 44.5 71.3333 45.25C68.3333 38.875 62.3333 34 55.3333 30.625C56 29.5 56.6667 28.75 57.3333 27.625H60C70.3333 27.25 80 34.375 80 40.75ZM22.6667 27.25H20C9.66667 27.25 0 34.375 0 40.75C0 43 4 44.5 8.66667 45.25C11.6667 38.875 17.6667 34 24.6667 30.625L22.6667 27.25ZM40 31C47.3333 31 53.3333 24.25 53.3333 16C53.3333 7.75 47.3333 1 40 1C32.6667 1 26.6667 7.75 26.6667 16C26.6667 24.25 32.6667 31 40 31ZM40 34.75C26.3333 34.75 13.3333 44.5 13.3333 53.5C13.3333 61 40 61 40 61C40 61 66.6667 61 66.6667 53.5C66.6667 44.5 53.6667 34.75 40 34.75ZM59 23.5H60C65.6667 23.5 70 18.625 70 12.25C70 5.875 65.6667 1 60 1C58.3333 1 57 1.375 55.6667 2.125C58.3333 5.875 60 10.75 60 16C60 18.625 59.6667 21.25 59 23.5ZM20 23.5H21C20.3333 21.25 20 18.625 20 16C20 10.75 21.6667 5.875 24.3333 2.125C23 1.375 21.6667 1 20 1C14.3333 1 10 5.875 10 12.25C10 18.625 14.3333 23.5 20 23.5Z" fill="white" stroke="white"/>
</svg>
